<mxfile host="app.diagrams.net" modified="2021-08-10T03:50:30.905Z" agent="5.0 (Macintosh; Intel Mac OS X 10_15_7) AppleWebKit/537.36 (KHTML, like Gecko) Chrome/92.0.4515.131 Safari/537.36" etag="jXxigWypURmM9JDJD0ZZ" version="14.9.3" type="github">
  <diagram id="o3Cv_5xPeERGCWgRlO20" name="第 1 页">
    <mxGraphModel dx="2386" dy="1182" grid="1" gridSize="10" guides="1" tooltips="1" connect="1" arrows="1" fold="1" page="1" pageScale="1" pageWidth="827" pageHeight="1169" math="0" shadow="0">
      <root>
        <mxCell id="0" />
        <mxCell id="1" parent="0" />
        <mxCell id="jG59k94BvEPK6zz0TE-A-7" style="edgeStyle=orthogonalEdgeStyle;rounded=0;orthogonalLoop=1;jettySize=auto;html=1;entryX=0;entryY=0.5;entryDx=0;entryDy=0;" edge="1" parent="1" source="jG59k94BvEPK6zz0TE-A-1" target="jG59k94BvEPK6zz0TE-A-2">
          <mxGeometry relative="1" as="geometry">
            <Array as="points">
              <mxPoint x="140" y="320" />
              <mxPoint x="140" y="190" />
            </Array>
          </mxGeometry>
        </mxCell>
        <mxCell id="jG59k94BvEPK6zz0TE-A-13" value="1. 配置" style="edgeLabel;html=1;align=center;verticalAlign=middle;resizable=0;points=[];" vertex="1" connectable="0" parent="jG59k94BvEPK6zz0TE-A-7">
          <mxGeometry x="-0.0833" y="3" relative="1" as="geometry">
            <mxPoint as="offset" />
          </mxGeometry>
        </mxCell>
        <mxCell id="jG59k94BvEPK6zz0TE-A-8" style="edgeStyle=orthogonalEdgeStyle;rounded=0;orthogonalLoop=1;jettySize=auto;html=1;entryX=0;entryY=0.5;entryDx=0;entryDy=0;" edge="1" parent="1" source="jG59k94BvEPK6zz0TE-A-1" target="jG59k94BvEPK6zz0TE-A-5">
          <mxGeometry relative="1" as="geometry">
            <mxPoint x="180" y="465" as="targetPoint" />
            <Array as="points">
              <mxPoint x="140" y="320" />
              <mxPoint x="140" y="420" />
            </Array>
          </mxGeometry>
        </mxCell>
        <mxCell id="jG59k94BvEPK6zz0TE-A-18" value="7. 发起调试" style="edgeLabel;html=1;align=center;verticalAlign=middle;resizable=0;points=[];" vertex="1" connectable="0" parent="jG59k94BvEPK6zz0TE-A-8">
          <mxGeometry x="0.0755" y="2" relative="1" as="geometry">
            <mxPoint as="offset" />
          </mxGeometry>
        </mxCell>
        <mxCell id="jG59k94BvEPK6zz0TE-A-1" value="User" style="shape=umlActor;verticalLabelPosition=bottom;verticalAlign=top;html=1;outlineConnect=0;" vertex="1" parent="1">
          <mxGeometry x="70" y="290" width="30" height="60" as="geometry" />
        </mxCell>
        <mxCell id="jG59k94BvEPK6zz0TE-A-15" value="2. 保存配置" style="edgeStyle=orthogonalEdgeStyle;rounded=0;orthogonalLoop=1;jettySize=auto;html=1;entryX=0;entryY=0.5;entryDx=0;entryDy=0;" edge="1" parent="1" source="jG59k94BvEPK6zz0TE-A-2" target="jG59k94BvEPK6zz0TE-A-3">
          <mxGeometry relative="1" as="geometry" />
        </mxCell>
        <mxCell id="jG59k94BvEPK6zz0TE-A-2" value="Pipeline" style="whiteSpace=wrap;html=1;" vertex="1" parent="1">
          <mxGeometry x="210" y="160" width="120" height="60" as="geometry" />
        </mxCell>
        <mxCell id="jG59k94BvEPK6zz0TE-A-16" style="edgeStyle=orthogonalEdgeStyle;rounded=0;orthogonalLoop=1;jettySize=auto;html=1;entryX=0;entryY=0.5;entryDx=0;entryDy=0;" edge="1" parent="1" source="jG59k94BvEPK6zz0TE-A-3" target="jG59k94BvEPK6zz0TE-A-4">
          <mxGeometry relative="1" as="geometry" />
        </mxCell>
        <mxCell id="jG59k94BvEPK6zz0TE-A-17" value="3. 同步配置到 DB" style="edgeLabel;html=1;align=center;verticalAlign=middle;resizable=0;points=[];" vertex="1" connectable="0" parent="jG59k94BvEPK6zz0TE-A-16">
          <mxGeometry x="-0.1186" y="3" relative="1" as="geometry">
            <mxPoint as="offset" />
          </mxGeometry>
        </mxCell>
        <mxCell id="jG59k94BvEPK6zz0TE-A-19" style="edgeStyle=orthogonalEdgeStyle;rounded=0;orthogonalLoop=1;jettySize=auto;html=1;entryX=0.5;entryY=0;entryDx=0;entryDy=0;" edge="1" parent="1" source="jG59k94BvEPK6zz0TE-A-3" target="jG59k94BvEPK6zz0TE-A-6">
          <mxGeometry relative="1" as="geometry" />
        </mxCell>
        <mxCell id="jG59k94BvEPK6zz0TE-A-3" value="HulkData V2" style="whiteSpace=wrap;html=1;" vertex="1" parent="1">
          <mxGeometry x="530" y="160" width="120" height="60" as="geometry" />
        </mxCell>
        <mxCell id="jG59k94BvEPK6zz0TE-A-4" value="DB" style="shape=cylinder;whiteSpace=wrap;html=1;boundedLbl=1;backgroundOutline=1;" vertex="1" parent="1">
          <mxGeometry x="827" y="150" width="60" height="80" as="geometry" />
        </mxCell>
        <mxCell id="jG59k94BvEPK6zz0TE-A-20" style="edgeStyle=orthogonalEdgeStyle;rounded=0;orthogonalLoop=1;jettySize=auto;html=1;entryX=0.5;entryY=1;entryDx=0;entryDy=0;" edge="1" parent="1" source="jG59k94BvEPK6zz0TE-A-5" target="jG59k94BvEPK6zz0TE-A-6">
          <mxGeometry relative="1" as="geometry" />
        </mxCell>
        <mxCell id="jG59k94BvEPK6zz0TE-A-5" value="HulkData Proxy" style="whiteSpace=wrap;html=1;" vertex="1" parent="1">
          <mxGeometry x="530" y="390" width="120" height="60" as="geometry" />
        </mxCell>
        <mxCell id="jG59k94BvEPK6zz0TE-A-22" style="edgeStyle=orthogonalEdgeStyle;rounded=0;orthogonalLoop=1;jettySize=auto;html=1;entryX=0;entryY=0.5;entryDx=0;entryDy=0;" edge="1" parent="1" source="jG59k94BvEPK6zz0TE-A-6" target="jG59k94BvEPK6zz0TE-A-21">
          <mxGeometry relative="1" as="geometry" />
        </mxCell>
        <mxCell id="jG59k94BvEPK6zz0TE-A-23" value="生成代码" style="edgeLabel;html=1;align=center;verticalAlign=middle;resizable=0;points=[];" vertex="1" connectable="0" parent="jG59k94BvEPK6zz0TE-A-22">
          <mxGeometry x="-0.0748" y="1" relative="1" as="geometry">
            <mxPoint as="offset" />
          </mxGeometry>
        </mxCell>
        <mxCell id="jG59k94BvEPK6zz0TE-A-6" value="HulkData Builder" style="whiteSpace=wrap;html=1;" vertex="1" parent="1">
          <mxGeometry x="530" y="280" width="120" height="60" as="geometry" />
        </mxCell>
        <mxCell id="jG59k94BvEPK6zz0TE-A-21" value="ScfCode" style="rounded=1;whiteSpace=wrap;html=1;" vertex="1" parent="1">
          <mxGeometry x="797" y="280" width="120" height="60" as="geometry" />
        </mxCell>
      </root>
    </mxGraphModel>
  </diagram>
</mxfile>
